<?xml version="1.0" encoding="UTF-8"?>
<svg id="Layer_2" data-name="Layer 2" xmlns="http://www.w3.org/2000/svg" viewBox="0 0 318.4 328.48">
  <defs>
    <style>
      .cls-1 {
        fill: #7a1a3d;
      }

      .cls-2 {
        fill: #fff;
      }

      .cls-3 {
        stroke-miterlimit: 10;
      }

      .cls-3, .cls-4 {
        stroke: #000;
      }

      .cls-4 {
        fill: none;
        stroke-linecap: round;
        stroke-linejoin: round;
        stroke-width: 17.68px;
      }
    </style>
  </defs>
  <g id="Layer_2_no_text_" data-name="Layer 2 (no text)">
    <g>
      <polygon class="cls-2" points="4.99 157.61 8.84 120.87 97.39 106.17 307.38 73.24 309.56 120.87 79.32 161.35 8.84 170.86 4.99 157.61"/>
      <polygon class="cls-2" points="3.15 260.28 7.01 223.53 95.55 208.83 305.54 175.91 307.73 223.53 77.49 264.01 7.01 273.52 3.15 260.28"/>
      <polygon class="cls-1" points="15.1 318.11 11.25 278.72 314.08 229.61 309.56 265.06 15.1 318.11"/>
      <polygon class="cls-1" points="4.99 178.25 312.25 126.43 312.25 175.91 115.85 202.29 8.84 217.65 4.99 178.25"/>
      <polygon class="cls-1" points="31.28 111.6 100.05 60.54 174.55 9.48 215.95 18.3 276.17 43.12 300.25 69.57 270.09 78.15 129.87 100.9 29.51 117.18 31.28 111.6"/>
      <line class="cls-4" x1="8.84" y1="276.03" x2="309.56" y2="227.24"/>
      <line class="cls-4" x1="8.84" y1="219.65" x2="309.56" y2="170.86"/>
      <path class="cls-4" d="M309.56,81.81c0-5.28-4.73-9.3-9.94-8.46L16.04,119.37c-4.15.67-7.19,4.25-7.19,8.46v183.25c0,5.28,4.73,9.3,9.94,8.46l283.59-46.01c4.15-.67,7.19-4.25,7.19-8.46V81.81Z"/>
      <path class="cls-4" d="M12.41,120.87L173.06,10.29c1.71-1.18,3.77-1.66,5.82-1.36,8.54,1.28,33,5.83,60.99,19.14,36.01,17.12,67.51,48.08,67.51,48.08"/>
      <line class="cls-4" x1="309.56" y1="123.99" x2="8.84" y2="172.78"/>
      <polygon class="cls-3" points="33.88 235.57 31.56 236.38 30.91 238.75 29.43 236.79 26.97 236.9 28.38 234.89 27.51 232.59 29.86 233.3 31.78 231.77 31.83 234.22 33.88 235.57"/>
      <polygon class="cls-3" points="152.43 236.4 150.11 237.21 149.46 239.58 147.97 237.62 145.52 237.73 146.92 235.72 146.06 233.42 148.41 234.13 150.33 232.6 150.38 235.05 152.43 236.4"/>
      <polygon class="cls-3" points="79.32 237.11 74.57 241.21 75.26 247.45 69.88 244.2 64.16 246.78 65.59 240.67 61.37 236.02 67.63 235.49 70.74 230.04 73.18 235.83 79.32 237.11"/>
      <polygon class="cls-3" points="233.14 200.09 232.68 206.35 237.58 210.28 231.48 211.77 229.26 217.65 225.95 212.31 219.68 212.01 223.73 207.22 222.08 201.16 227.89 203.53 233.14 200.09"/>
      <polygon class="cls-3" points="188.78 221.62 188.43 226.45 192.2 229.48 187.5 230.64 185.79 235.16 183.24 231.05 178.4 230.82 181.52 227.12 180.25 222.45 184.73 224.28 188.78 221.62"/>
      <polygon class="cls-3" points="294.22 190.5 290.6 193.7 291.18 198.51 287.01 196.05 282.62 198.1 283.67 193.37 280.37 189.83 285.19 189.36 287.54 185.13 289.47 189.57 294.22 190.5"/>
      <polygon class="cls-3" points="119.34 220.3 115.72 223.51 116.3 228.31 112.13 225.86 107.74 227.9 108.79 223.17 105.49 219.63 110.31 219.17 112.66 214.93 114.59 219.37 119.34 220.3"/>
      <polygon class="cls-3" points="203.55 209.18 201.23 209.99 200.58 212.36 199.09 210.4 196.64 210.51 198.04 208.5 197.18 206.2 199.53 206.91 201.45 205.38 201.5 207.83 203.55 209.18"/>
      <polygon class="cls-3" points="268.43 215.25 266.11 216.06 265.46 218.42 263.98 216.47 261.53 216.58 262.93 214.56 262.07 212.26 264.42 212.98 266.34 211.44 266.38 213.9 268.43 215.25"/>
    </g>
  </g>
</svg>